<mxfile host="app.diagrams.net" modified="2024-02-02T17:14:16.569Z" agent="Mozilla/5.0 (Linux; Android 10; K) AppleWebKit/537.36 (KHTML, like Gecko) Chrome/120.0.0.0 Safari/537.36" version="23.1.1" etag="mtMKqJ3aScjebLyRcVRO" type="github">
  <diagram name="Page-1" id="30PPVlwK6h3jFVkW4rHz">
    <mxGraphModel>
      <root>
        <mxCell id="0" />
        <mxCell id="1" parent="0" />
      </root>
    </mxGraphModel>
  </diagram>
</mxfile>
